<svg width="1920" height="1080" viewBox="0 0 1920 1080" xmlns="http://www.w3.org/2000/svg"><rect width="1920" height="1080" fill="#0a1833"/><path d="M1920,1080C1600.8333333333333,1124.3333333333333,285.6666666666667,1148,0,1080C-285.6666666666667,1012,135.16666666666669,766.3333333333334,206,672C276.8333333333333,577.6666666666666,353.3333333333333,503.3333333333333,425,514C496.6666666666667,524.6666666666666,565,737.3333333333334,636,736C707,734.6666666666666,779.8333333333334,482.6666666666667,851,506C922.1666666666666,529.3333333333334,993.1666666666666,857.3333333333334,1063,876C1132.8333333333333,894.6666666666666,1199.1666666666667,642.6666666666666,1270,618C1340.8333333333333,593.3333333333334,1415.5,728.3333333333334,1488,728C1560.5,727.6666666666666,1633.8333333333333,601.6666666666666,1705,616C1776.1666666666667,630.3333333333334,1879.1666666666667,736.6666666666666,1915,814C1950.8333333333333,891.3333333333334,2239.1666666666665,1035.6666666666667,1920,1080C1600.8333333333333,1124.3333333333333,285.6666666666667,1148,0,1080" fill="#ffffff"/></svg>