<svg xmlns="http://www.w3.org/2000/svg" version="1.1" xmlns:xlink="http://www.w3.org/1999/xlink" xmlns:svgjs="http://svgjs.dev/svgjs" viewBox="0 0 2400 800" opacity="1"><g fill="#ffffffff" transform="matrix(1,0,0,1,9.6998291015625,362.62853240966797)"><path d="M-10,10C30.544871794871796,31.875,105.60897435897436,130.625,184.6153846153846,115C263.62179487179486,99.375,292.3076923076923,-57.083333333333336,369.2307692307692,-65C446.15384615384613,-72.91666666666667,476.9230769230769,64.29166666666667,553.8461538461538,77C630.7692307692307,89.70833333333333,661.5384615384615,-14.833333333333332,738.4615384615385,-4C815.3846153846154,6.833333333333332,846.1538461538462,141.08333333333334,923.0769230769231,129C1000,116.91666666666667,1030.7692307692307,-48.25,1107.6923076923076,-62C1184.6153846153845,-75.75,1215.3846153846155,58.208333333333336,1292.3076923076924,63C1369.2307692307693,67.79166666666667,1400,-48.791666666666664,1476.923076923077,-39C1553.8461538461538,-29.208333333333336,1584.6153846153845,118.54166666666667,1661.5384615384614,110C1738.4615384615383,101.45833333333333,1769.2307692307693,-63.75,1846.1538461538462,-80C1923.076923076923,-96.25,1953.8461538461538,34.916666666666664,2030.7692307692307,32C2107.6923076923076,29.083333333333332,2138.461538461538,-109.83333333333333,2215.3846153846152,-94C2292.3076923076924,-78.16666666666667,2309.455128205128,5.083333333333343,2400,108C2490.544871794872,210.91666666666666,3254.1666666666665,235,2650,400C2045.8333333333335,565,156.25,795.8333333333334,-500,900" transform="matrix(1,0,0,1,0,35)" opacity="NaN"></path></g></svg>